<svg width="75" height="74" viewBox="0 0 1042 1004" fill="none" xmlns="http://www.w3.org/2000/svg">
<path d="M696.208 964.134C705.904 975.293 732.41 960.934 756.574 925.74C784.997 884.342 806.303 836.663 817.372 800.457C813.725 800.305 810.245 800.337 806.902 800.573C800.316 801.038 794.26 802.294 788.503 804.482C767.546 812.447 750.552 832.774 726.391 872.359C726.391 860.375 728.547 854.351 732.859 846.213C743.5 826.127 753.056 809.601 761.61 796.099C731.956 800.445 718.992 793.411 704.269 759.136C701.604 842.097 665.351 914.122 612.947 970.407C627.421 981.681 660.635 982.39 696.208 964.134Z" fill="#FFDD48"/>
<path d="M732.859 846.213C728.547 854.351 726.391 860.375 726.391 872.359C750.552 832.774 767.546 812.447 788.503 804.482C798.523 779.188 802.793 764.58 807.021 743.807C800.708 746.878 792.608 753.84 782.445 766.469C776.28 774.129 769.356 783.874 761.61 796.099C753.056 809.601 743.5 826.127 732.859 846.213Z" fill="#FFDD48"/>
<path d="M822.87 747.075C820.018 742.213 814.916 739.967 807.021 743.807C802.793 764.58 798.523 779.188 788.503 804.482C794.26 802.294 800.316 801.038 806.902 800.573C815.436 779.913 819.247 766.671 822.87 747.075Z" fill="#FFDD48"/>
<path d="M817.372 800.457C821.835 785.857 824.634 773.122 825.563 763.417C826.129 757.511 825.35 751.304 822.87 747.075C819.247 766.671 815.436 779.913 806.902 800.573C810.245 800.337 813.725 800.305 817.372 800.457Z" fill="#FFDD48"/>
<path d="M782.445 766.469C764.119 732.913 741.482 728.555 704.269 739.449C704.481 746.077 704.478 752.64 704.269 759.136C718.992 793.411 731.956 800.445 761.61 796.099C769.356 783.874 776.28 774.129 782.445 766.469Z" fill="#FFDD48"/>
<path d="M408.44 964.96C412.944 972.843 417.614 980.145 422.405 986.748L429.951 982.39L442.887 993.285L454.744 985.659L466.602 994.374L475.225 986.748L483.849 993.285L492.473 978.033L505.408 975.854L501.097 961.691C511.521 959.732 517.368 959.967 527.802 963.87C528.457 970.86 529.259 978.103 530.202 985.659L537.747 982.39L545.293 995.463L559.307 991.106L567.93 1002L578.71 993.285L587.334 999.821L594.879 988.927H606.737L604.581 979.122C607.412 976.261 610.202 973.355 612.947 970.407C557.151 997.642 545.293 954.065 545.293 925.74C545.293 894.147 564.696 783.026 614.283 722.018C573.32 752.522 513.078 743.201 452.588 706.767C496.785 771.042 503.924 874.538 489.239 925.74C467.68 1000.91 429.413 983.542 397.62 944.261C401.096 951.512 404.711 958.435 408.44 964.96Z" fill="#FFDD48"/>
<path d="M197.111 842.944C197.111 915.936 271.491 1025.97 408.44 964.96C404.711 958.435 401.096 951.512 397.62 944.261C377.186 901.639 361.538 847.642 355.792 796.099C337.252 775.697 293.094 746.61 267.069 749.834C282.232 773.323 295.536 808.29 305.389 848.391C306.472 860.093 306.808 866.314 305.985 875.627C285.492 830.939 269.851 801.7 257.054 787.843C248.789 778.894 241.71 776.36 235.276 780.222C229.678 783.583 224.569 791.784 219.591 804.815C216.502 787.209 215.327 772.501 215.347 760.511C204.292 780.581 197.111 807.762 197.111 842.944Z" fill="#FFDD48"/>
<path d="M267.069 749.834C260.498 739.655 253.578 731.631 246.438 726.28C245.747 725.762 245.055 725.269 244.36 724.802C244.238 742.01 246.692 756.572 257.054 787.843C269.851 801.7 285.492 830.939 305.985 875.627C306.808 866.314 306.472 860.093 305.389 848.391C295.536 808.29 282.232 773.323 267.069 749.834Z" fill="#FFDD48"/>
<path d="M244.36 724.802C241.575 722.929 238.758 721.465 235.918 720.44C232.71 719.284 229.473 718.687 226.216 718.695C227.224 743.179 229.055 758.565 235.276 780.222C241.71 776.36 248.789 778.894 257.054 787.843C246.692 756.572 244.238 742.01 244.36 724.802Z" fill="#FFDD48"/>
<path d="M226.216 718.695C222.286 718.705 215.395 731.831 215.347 760.511C215.327 772.501 216.502 787.209 219.591 804.815C224.569 791.784 229.678 783.583 235.276 780.222C229.055 758.565 227.224 743.179 226.216 718.695Z" fill="#FFDD48"/>
<path d="M274.606 694.783C279.852 688.394 284.709 682.256 289.241 676.263C300.596 704.588 293.05 714.393 274.606 694.783Z" fill="#FFDD48"/>
<path d="M315.484 637.044C319.374 630.315 323.024 623.468 326.527 616.345C339.402 653.385 334.012 657.743 315.484 637.044Z" fill="#FFDD48"/>
<path d="M246.438 726.28C247.24 725.769 248.045 725.277 248.853 724.802C258.404 714.038 266.922 704.142 274.606 694.783C279.852 688.394 284.709 682.256 289.241 676.263C295.135 668.468 300.48 660.919 305.413 653.385L281.327 629.418L241.501 658.832L256.399 670.816L235.918 720.44C238.758 721.465 241.575 722.929 244.36 724.802C245.055 725.269 245.747 725.762 246.438 726.28Z" fill="#FFDD48"/>
<path d="M24.6372 385.387C94.2795 407.738 139.207 425.358 226.216 462.736L177.708 537.906C201.423 552.069 224.19 563.34 242.386 579.304C225.076 598.773 217.063 609.434 203.579 628.328L241.501 658.832L281.327 629.418L272.569 620.702C287.522 602.009 298.124 589.136 310.297 575.769C280.413 550.796 258.555 534.638 224.06 512.849C245.185 481.049 255.191 463.162 269.335 431.143C177.361 367.031 121.226 339.18 13.7286 302.591C16.5436 326.996 20.0929 353.921 24.6372 385.387Z" fill="#FFDD48"/>
<path d="M360.529 406.086C363.54 397.628 366.911 388.931 370.663 379.94C368.078 361.653 366.057 343.859 364.596 326.558C353.351 318.17 342.476 310.197 331.894 302.591C224.06 337.453 100.095 302.591 5.74495 213.258C7.50655 241.753 9.95923 269.913 13.7286 302.591C121.226 339.18 177.361 367.031 269.335 431.143C255.191 463.162 245.185 481.049 224.06 512.849C258.555 534.638 280.413 550.796 310.297 575.769C316.749 568.684 323.641 561.46 331.857 553.158C311.499 533.749 298.236 523.604 272.569 506.313C296.284 468.183 349.104 410.444 360.529 406.086Z" fill="#FFDD48"/>
<path d="M341.178 489.972C354.597 444.706 363.834 421.86 384.677 387.566C375.007 359.206 370.304 338.208 362.577 296.055C363.05 306.045 363.723 316.213 364.596 326.558C366.057 343.859 368.078 361.653 370.663 379.94C366.911 388.931 363.54 397.628 360.529 406.086C349.81 436.204 343.663 463.308 341.178 489.972Z" fill="#FFDD48"/>
<path d="M331.894 302.591C219.007 221.451 139.557 182.061 2 125.015C2.97877 157.693 4.03707 185.633 5.74495 213.258C100.095 302.591 224.06 337.453 331.894 302.591Z" fill="#FFDD48"/>
<path d="M420.249 360.33C430.53 355.707 434.174 349.91 439.273 337.453C439.908 334.904 440.529 332.362 441.138 329.827C461.331 245.658 466.952 169.212 458.639 96.6903C449.227 99.2106 441.189 102.508 434.225 106.36C444.127 172.615 439.922 245.016 420.249 360.33Z" fill="#FFDD48"/>
<path d="M417.516 33.5038C391.532 74.7638 374.536 124.578 366.717 182.755C390.112 165.248 396.034 127.48 434.225 106.36C430.562 81.8539 424.97 58.1888 417.516 33.5038Z" fill="#FFDD48"/>
<path d="M458.639 96.6903C454.985 64.8092 448.638 33.6867 439.653 3C431.666 12.585 424.286 22.7541 417.516 33.5038C424.97 58.1888 430.562 81.8539 434.225 106.36C441.189 102.508 449.227 99.2106 458.639 96.6903Z" fill="#FFDD48"/>
<path d="M733.937 391.725C727.892 379.091 720.331 366.532 712.054 355.598C710.718 353.956 709.391 352.265 708.065 350.526L700.52 341.81C796.648 336.227 871.033 341.632 930.66 360.837C935.574 353.857 939.102 346.178 941.983 337.202C859.26 311.111 761.038 307.92 663.869 320.281C633.169 305.135 599.71 297 565.774 296.362C609.971 357.062 657.401 387.566 737.943 400.639C736.698 397.677 735.359 394.699 733.937 391.725Z" fill="#FFDD48"/>
<path d="M700.52 341.81L708.065 350.526C709.411 352.171 710.741 353.864 712.054 355.598C737.576 386.975 766.537 400.852 860.058 407.766C898.718 390.554 918.755 377.749 930.66 360.837C871.033 341.632 796.648 336.227 700.52 341.81Z" fill="#FFDD48"/>
<path d="M733.937 391.725C774.427 401.688 816.526 407.147 860.058 407.766C766.537 400.852 737.576 386.975 712.054 355.598C720.331 366.532 727.892 379.091 733.937 391.725Z" fill="#FFDD48"/>
<path d="M1039 384.298C1010.43 363.951 977.644 348.449 941.983 337.202C939.102 346.178 935.574 353.857 930.66 360.837C956.401 369.127 979.391 379.989 1000.19 393.648C1013.03 390.932 1025.97 387.818 1039 384.298Z" fill="#FFDD48"/>
<path d="M860.058 407.766C905.287 408.409 952.063 403.828 1000.19 393.648C979.391 379.989 956.401 369.127 930.66 360.837C918.755 377.749 898.718 390.554 860.058 407.766Z" fill="#FFDD48"/>
<path d="M763.042 513.845C731.7 540.52 726.458 591.487 751.728 618.523C763.776 600.574 772.801 582.593 777.565 566.231C760.515 550.517 756.574 535.727 763.042 513.845Z" fill="#FFDD48"/>
<path d="M781.367 542.264C781.367 525.66 777.02 516.085 771.914 507.402C768.757 509.34 765.798 511.498 763.042 513.845C756.574 535.727 760.515 550.517 777.565 566.231C780.042 557.727 781.367 549.661 781.367 542.264Z" fill="#FFDD48"/>
<path d="M447.198 559.695C447.198 535.727 427.795 511.488 398.69 511.488C388.437 511.488 378.692 514.953 370.663 520.763C386.362 560.983 403.592 569.394 447.102 562.963C447.166 561.885 447.198 560.796 447.198 559.695Z" fill="#FFDD48"/>
<path d="M350.182 559.695C350.182 590.198 374.975 608.719 398.69 608.719C424.592 608.719 445.514 589.598 447.102 562.963C403.592 569.394 386.362 560.983 370.663 520.763C358.432 529.615 350.182 543.91 350.182 559.695Z" fill="#FFDD48"/>
<path d="M571.164 666.754C585.066 666.749 611.152 632.352 630.282 589.109C628.692 579.223 626.813 570.805 624.252 563.182C590.535 547.825 568.093 550.986 531.477 564.052C534.606 627.912 549.999 666.754 571.164 666.754Z" fill="#FFDD48"/>
<path d="M630.282 589.109C633.014 582.932 635.605 576.575 637.998 570.111C633.189 567.478 628.626 565.174 624.252 563.182C626.813 570.805 628.692 579.223 630.282 589.109Z" fill="#FFDD48"/>
<path d="M650.933 523.387C637.808 523.072 621.391 513.215 611.049 499.776C603.441 505.387 596.274 509.974 589.49 513.578C608.338 531.587 618.199 545.162 624.252 563.182C628.626 565.174 633.189 567.478 637.998 570.111C643.666 554.802 648.225 538.897 650.933 523.387Z" fill="#FFDD48"/>
<path d="M589.49 513.578C566.409 525.84 547.759 526.735 531.28 517.896C530.691 534.417 530.781 549.853 531.477 564.052C568.093 550.986 590.535 547.825 624.252 563.182C618.199 545.162 608.338 531.587 589.49 513.578Z" fill="#FFDD48"/>
<path d="M608.893 472.541C611.133 473.731 612.333 474.788 614.283 477.988C616.261 475.977 617.088 474.803 617.517 472.541C614.897 471.239 612.882 471.458 608.893 472.541Z" fill="#FFDD48"/>
<path d="M685.428 415.891C702.676 415.891 722.079 441.235 722.079 461.647C722.079 474.72 714.533 486.703 699.442 486.703C682.194 486.703 660.635 467.094 660.635 445.305C660.635 426.785 668.181 415.891 685.428 415.891Z" fill="#FFDD48"/>
<path d="M694.052 439.57C694.052 434.411 690.818 425.696 681.116 425.696C672.493 425.696 668.181 431.769 668.181 439.858C668.181 448.861 674.649 451.842 681.116 451.842C687.584 451.842 694.052 449.663 694.052 439.57Z" fill="#FFDD48"/>
<path fill-rule="evenodd" clip-rule="evenodd" d="M439.273 337.453C434.174 349.91 430.53 355.707 420.249 360.33C439.922 245.016 444.127 172.615 434.225 106.36C396.034 127.48 390.112 165.248 366.717 182.755C362.042 217.544 360.648 255.325 362.577 296.055C370.304 338.208 375.007 359.206 384.677 387.566C363.834 421.86 354.597 444.706 341.178 489.972C338.583 517.799 339.977 545.148 344.322 574.947C338.494 590.206 332.74 603.71 326.527 616.345C339.402 653.385 334.012 657.743 315.484 637.044C312.305 642.541 308.966 647.959 305.413 653.385C300.48 660.919 295.135 668.468 289.241 676.263C300.596 704.588 293.05 714.393 274.606 694.783C266.922 704.142 258.404 714.038 248.853 724.802C248.045 725.277 247.24 725.769 246.438 726.28C253.578 731.631 260.498 739.655 267.069 749.834C293.094 746.61 337.252 775.697 355.792 796.099C361.538 847.642 377.186 901.639 397.62 944.261C429.413 983.542 467.68 1000.91 489.239 925.74C503.924 874.538 496.785 771.042 452.588 706.767C513.078 743.201 573.32 752.522 614.283 722.018C564.696 783.026 545.293 894.147 545.293 925.74C545.293 954.065 557.151 997.642 612.947 970.407C665.351 914.122 701.604 842.097 704.269 759.136C704.478 752.64 704.481 746.077 704.269 739.449C703.66 720.358 701.273 700.731 696.907 680.62C718.142 661.922 737.148 640.246 751.728 618.523C726.458 591.487 731.7 540.52 763.042 513.845C765.798 511.498 768.757 509.34 771.914 507.402C768.98 502.412 765.795 497.717 763.042 492.15C758.73 483.435 750.106 459.468 747.95 436.59C746.952 426.003 743.334 413.472 737.943 400.639C657.401 387.566 609.971 357.062 565.774 296.362C523.5 295.568 480.485 306.409 441.138 329.827C440.529 332.362 439.908 334.904 439.273 337.453ZM398.69 511.488C427.795 511.488 447.198 535.727 447.198 559.695C447.198 560.796 447.166 561.885 447.102 562.963C445.514 589.598 424.592 608.719 398.69 608.719C374.975 608.719 350.182 590.198 350.182 559.695C350.182 543.91 358.432 529.615 370.663 520.763C378.692 514.953 388.437 511.488 398.69 511.488ZM611.049 499.776C621.391 513.215 637.808 523.072 650.933 523.387C648.225 538.897 643.666 554.802 637.998 570.111C635.605 576.575 633.014 582.932 630.282 589.109C611.152 632.352 585.066 666.749 571.164 666.754C549.999 666.754 534.606 627.912 531.477 564.052C530.781 549.853 530.691 534.417 531.28 517.896C547.759 526.735 566.409 525.84 589.49 513.578C596.274 509.974 603.441 505.387 611.049 499.776ZM614.283 477.988C612.333 474.788 611.133 473.731 608.893 472.541C612.882 471.458 614.897 471.239 617.517 472.541C617.088 474.803 616.261 475.977 614.283 477.988ZM495.707 448.286C495.707 427.875 479.537 410.444 460.134 410.444C440.731 410.444 424.561 425.696 424.561 448.286C424.561 473.63 443.965 484.525 460.134 484.525C475.225 484.525 495.707 471.451 495.707 448.286ZM722.079 461.647C722.079 441.235 702.676 415.891 685.428 415.891C668.181 415.891 660.635 426.785 660.635 445.305C660.635 467.094 682.194 486.703 699.442 486.703C714.533 486.703 722.079 474.72 722.079 461.647Z" fill="#FFDD48"/>
<path fill-rule="evenodd" clip-rule="evenodd" d="M460.134 410.444C479.537 410.444 495.707 427.875 495.707 448.286C495.707 471.451 475.225 484.525 460.134 484.525C443.965 484.525 424.561 473.63 424.561 448.286C424.561 425.696 440.731 410.444 460.134 410.444ZM465.524 469.273C454.948 479.34 447.677 476.995 432.107 457.289C428.664 452.931 441.365 448.005 443.965 452.931C452.588 469.273 455.364 469.682 460.134 466.004C463.368 463.512 467.68 467.22 465.524 469.273ZM484.927 436.302C484.927 431.143 480.615 421.338 470.914 421.338C462.29 421.338 456.9 428.213 456.9 436.302C456.9 445.305 464.446 449.663 470.914 449.663C477.381 449.663 484.927 446.395 484.927 436.302Z" fill="#FFDD48"/>
<path d="M470.914 421.338C480.615 421.338 484.927 431.143 484.927 436.302C484.927 446.395 477.381 449.663 470.914 449.663C464.446 449.663 456.9 445.305 456.9 436.302C456.9 428.213 462.29 421.338 470.914 421.338Z" fill="#FFDD48"/>
<path d="M432.107 457.289C447.677 476.995 454.948 479.34 465.524 469.273C467.68 467.22 463.368 463.512 460.134 466.004C455.364 469.682 452.588 469.273 443.965 452.931C441.365 448.005 428.664 452.931 432.107 457.289Z" fill="#FFDD48"/>
<g style="mix-blend-mode:multiply" opacity="0.85">
<path d="M408.44 964.96C412.944 972.843 417.614 980.145 422.405 986.748L429.951 982.39L442.887 993.285L454.744 985.659L466.602 994.374L475.225 986.748L483.849 993.285L492.473 978.033L505.408 975.854L501.097 961.691C511.521 959.732 517.368 959.967 527.802 963.87C528.457 970.86 529.259 978.103 530.202 985.659L537.747 982.39L545.293 995.463L559.307 991.106L567.93 1002L578.71 993.285L587.334 999.821L594.879 988.927H606.737L604.581 979.122C607.412 976.261 610.202 973.355 612.947 970.407C557.151 997.642 545.293 954.065 545.293 925.74C545.293 894.147 564.696 783.026 614.283 722.018C573.32 752.522 513.078 743.201 452.588 706.767C496.785 771.042 503.924 874.538 489.239 925.74C467.68 1000.91 429.413 983.542 397.62 944.261C401.096 951.512 404.711 958.435 408.44 964.96Z" fill="#EBB435" fill-opacity="0.75"/>
</g>
<g style="mix-blend-mode:multiply" opacity="0.85">
<path d="M24.6372 385.387C94.2795 407.738 139.207 425.358 226.216 462.736L177.708 537.906C201.423 552.069 224.19 563.34 242.386 579.304C225.076 598.773 217.063 609.434 203.579 628.328L241.501 658.832L281.327 629.418L272.569 620.702C287.522 602.009 298.124 589.136 310.297 575.769C280.413 550.796 258.555 534.638 224.06 512.849C245.185 481.049 255.191 463.162 269.335 431.143C177.361 367.031 121.226 339.18 13.7286 302.591C16.5436 326.996 20.0929 353.921 24.6372 385.387Z" fill="#EBB33C" fill-opacity="0.75"/>
</g>
<path d="M246.438 726.28C247.24 725.769 248.045 725.277 248.853 724.802C258.404 714.038 266.922 704.142 274.606 694.783C279.852 688.394 284.709 682.256 289.241 676.263C295.135 668.468 300.48 660.919 305.413 653.385L281.327 629.418L241.501 658.832L256.399 670.816L235.918 720.44C238.758 721.465 241.575 722.929 244.36 724.802C245.055 725.269 245.747 725.762 246.438 726.28Z" fill="#895929"/>
<g style="mix-blend-mode:multiply" opacity="0.85">
<path d="M197.111 842.944C197.111 915.936 271.491 1025.97 408.44 964.96C404.711 958.435 401.096 951.512 397.62 944.261C377.186 901.639 361.538 847.642 355.792 796.099C337.252 775.697 293.094 746.61 267.069 749.834C282.232 773.323 295.536 808.29 305.389 848.391C306.472 860.093 306.808 866.314 305.985 875.627C285.492 830.939 269.851 801.7 257.054 787.843C248.789 778.894 241.71 776.36 235.276 780.222C229.678 783.583 224.569 791.784 219.591 804.815C216.502 787.209 215.327 772.501 215.347 760.511C204.292 780.581 197.111 807.762 197.111 842.944Z" fill="#EDB335" fill-opacity="0.75"/>
</g>
<g style="mix-blend-mode:multiply" opacity="0.85">
<path d="M696.208 964.134C705.904 975.293 732.41 960.934 756.574 925.741C784.997 884.343 806.303 836.664 817.372 800.457C813.725 800.305 810.245 800.337 806.902 800.573C800.316 801.038 794.26 802.294 788.503 804.482C767.546 812.447 750.552 832.774 726.391 872.359C726.391 860.375 728.547 854.351 732.859 846.213C743.5 826.127 753.056 809.601 761.61 796.099C731.956 800.445 718.992 793.411 704.269 759.136C701.604 842.097 665.351 914.122 612.947 970.407C627.421 981.681 660.635 982.391 696.208 964.134Z" fill="#EAB535" fill-opacity="0.75"/>
</g>
<g style="mix-blend-mode:lighten" opacity="0.75">
<path d="M267.069 749.834C260.498 739.655 253.578 731.631 246.438 726.28C245.747 725.762 245.055 725.269 244.36 724.802C244.238 742.01 246.692 756.572 257.054 787.843C269.851 801.7 285.492 830.939 305.985 875.627C306.808 866.314 306.472 860.093 305.389 848.391C295.536 808.29 282.232 773.323 267.069 749.834Z" fill="#F8F3AF" fill-opacity="0.75"/>
<path d="M244.36 724.802C241.575 722.929 238.758 721.465 235.918 720.44C232.71 719.284 229.473 718.687 226.216 718.695C227.224 743.179 229.055 758.565 235.276 780.222C241.71 776.36 248.789 778.894 257.054 787.843C246.692 756.572 244.238 742.01 244.36 724.802Z" fill="#F8F3AF" fill-opacity="0.75"/>
<path d="M226.216 718.695C222.286 718.705 215.395 731.831 215.347 760.511C215.327 772.501 216.502 787.209 219.591 804.815C224.569 791.784 229.678 783.583 235.276 780.222C229.055 758.565 227.224 743.179 226.216 718.695Z" fill="#F8F3AF" fill-opacity="0.75"/>
<path d="M732.859 846.213C728.547 854.351 726.391 860.375 726.391 872.359C750.552 832.774 767.546 812.447 788.503 804.482C798.523 779.188 802.793 764.58 807.021 743.807C800.708 746.878 792.608 753.84 782.445 766.469C776.28 774.129 769.356 783.874 761.61 796.099C753.056 809.601 743.5 826.127 732.859 846.213Z" fill="#F8F3AF" fill-opacity="0.75"/>
<path d="M822.87 747.075C820.018 742.213 814.916 739.967 807.021 743.807C802.793 764.58 798.523 779.188 788.503 804.482C794.26 802.294 800.316 801.038 806.902 800.573C815.436 779.913 819.247 766.671 822.87 747.075Z" fill="#F8F3AF" fill-opacity="0.75"/>
<path d="M817.372 800.457C821.835 785.857 824.634 773.122 825.563 763.417C826.129 757.511 825.35 751.304 822.87 747.075C819.247 766.671 815.436 779.913 806.902 800.573C810.245 800.337 813.725 800.305 817.372 800.457Z" fill="#F8F3AF" fill-opacity="0.75"/>
<path d="M782.445 766.469C764.119 732.913 741.482 728.555 704.269 739.449C704.481 746.077 704.478 752.64 704.269 759.136C718.992 793.411 731.956 800.445 761.61 796.099C769.356 783.874 776.28 774.129 782.445 766.469Z" fill="#F8F3AF" fill-opacity="0.75"/>
</g>
<path d="M350.182 559.695C350.182 590.198 374.975 608.719 398.69 608.719C424.592 608.719 445.514 589.598 447.102 562.963C403.592 569.394 386.362 560.983 370.663 520.763C358.432 529.615 350.182 543.91 350.182 559.695Z" fill="#F74A38"/>
<path d="M447.198 559.695C447.198 535.727 427.795 511.488 398.69 511.488C388.437 511.488 378.692 514.953 370.663 520.763C386.362 560.983 403.592 569.394 447.102 562.963C447.166 561.885 447.198 560.796 447.198 559.695Z" fill="#F74A38"/>
<path d="M763.042 513.845C731.7 540.52 726.458 591.487 751.728 618.523C763.776 600.574 772.801 582.593 777.565 566.231C760.515 550.517 756.574 535.727 763.042 513.845Z" fill="#F74A38"/>
<path d="M781.367 542.264C781.367 525.66 777.02 516.085 771.914 507.402C768.757 509.34 765.798 511.498 763.042 513.845C756.574 535.727 760.515 550.517 777.565 566.231C780.042 557.727 781.367 549.661 781.367 542.264Z" fill="#F74A38"/>
<path d="M447.198 559.695C447.198 535.727 427.795 511.488 398.69 511.488C388.437 511.488 378.692 514.953 370.663 520.763C386.362 560.983 403.592 569.394 447.102 562.963C447.166 561.885 447.198 560.796 447.198 559.695Z" fill="#FA9182" fill-opacity="0.75"/>
<path d="M781.367 542.264C781.367 525.66 777.02 516.085 771.914 507.402C768.757 509.34 765.798 511.498 763.042 513.845C756.574 535.727 760.515 550.517 777.565 566.231C780.042 557.727 781.367 549.661 781.367 542.264Z" fill="#FA9182" fill-opacity="0.75"/>
<path d="M274.606 694.783C279.852 688.394 284.709 682.256 289.241 676.263C300.596 704.588 293.05 714.393 274.606 694.783Z" fill="#895F35"/>
<path d="M315.484 637.044C319.374 630.315 323.024 623.468 326.527 616.345C339.402 653.385 334.012 657.743 315.484 637.044Z" fill="#895F35"/>
<path d="M571.164 666.754C585.066 666.749 611.152 632.352 630.282 589.109C628.692 579.223 626.813 570.805 624.252 563.182C590.535 547.825 568.093 550.986 531.477 564.052C534.606 627.912 549.999 666.754 571.164 666.754Z" fill="#F4ACC3"/>
<path d="M589.49 513.578C566.409 525.84 547.759 526.735 531.28 517.896C530.691 534.417 530.781 549.853 531.477 564.052C568.093 550.986 590.535 547.825 624.252 563.182C618.199 545.162 608.338 531.587 589.49 513.578Z" fill="#F4ACC3"/>
<path d="M650.933 523.387C637.808 523.072 621.391 513.215 611.049 499.776C603.441 505.387 596.274 509.974 589.49 513.578C608.338 531.587 618.199 545.162 624.252 563.182C628.626 565.174 633.189 567.478 637.998 570.111C643.666 554.802 648.225 538.897 650.933 523.387Z" fill="#F4ACC3"/>
<path d="M630.282 589.109C633.014 582.932 635.605 576.575 637.998 570.111C633.189 567.478 628.626 565.174 624.252 563.182C626.813 570.805 628.692 579.223 630.282 589.109Z" fill="#F4ACC3"/>
<path d="M589.49 513.578C566.409 525.84 547.759 526.735 531.28 517.896C530.691 534.417 530.781 549.853 531.477 564.052C568.093 550.986 590.535 547.825 624.252 563.182C618.199 545.162 608.338 531.587 589.49 513.578Z" fill="#EF99A2"/>
<path d="M650.933 523.387C637.808 523.072 621.391 513.215 611.049 499.776C603.441 505.387 596.274 509.974 589.49 513.578C608.338 531.587 618.199 545.162 624.252 563.182C628.626 565.174 633.189 567.478 637.998 570.111C643.666 554.802 648.225 538.897 650.933 523.387Z" fill="#BB8189"/>
<path d="M630.282 589.109C633.014 582.932 635.605 576.575 637.998 570.111C633.189 567.478 628.626 565.174 624.252 563.182C626.813 570.805 628.692 579.223 630.282 589.109Z" fill="#D3A0A9"/>
<path d="M417.516 33.5038C391.532 74.7638 374.536 124.578 366.717 182.755C390.112 165.248 396.034 127.48 434.225 106.36C430.562 81.8539 424.97 58.1888 417.516 33.5038Z" fill="#43474E"/>
<path d="M458.639 96.6903C454.985 64.8092 448.638 33.6867 439.653 3C431.666 12.585 424.286 22.7541 417.516 33.5038C424.97 58.1888 430.562 81.8539 434.225 106.36C441.189 102.508 449.227 99.2106 458.639 96.6903Z" fill="#43474E"/>
<path d="M860.058 407.766C905.287 408.409 952.063 403.828 1000.19 393.648C979.391 379.989 956.401 369.127 930.66 360.837C918.755 377.749 898.718 390.554 860.058 407.766Z" fill="#43474E"/>
<path d="M1039 384.298C1010.43 363.951 977.644 348.449 941.983 337.202C939.102 346.178 935.574 353.857 930.66 360.837C956.401 369.127 979.391 379.989 1000.19 393.648C1013.03 390.932 1025.97 387.818 1039 384.298Z" fill="#43474E"/>
<g style="mix-blend-mode:lighten" opacity="0.85">
<path d="M458.639 96.6903C454.985 64.8092 448.638 33.6867 439.653 3C431.666 12.585 424.286 22.7541 417.516 33.5038C424.97 58.1888 430.562 81.8539 434.225 106.36C441.189 102.508 449.227 99.2106 458.639 96.6903Z" fill="#6A6B6F" fill-opacity="0.75"/>
<path d="M1039 384.298C1010.43 363.951 977.644 348.449 941.983 337.202C939.102 346.178 935.574 353.857 930.66 360.837C956.401 369.127 979.391 379.989 1000.19 393.648C1013.03 390.932 1025.97 387.818 1039 384.298Z" fill="#6A6B6F" fill-opacity="0.75"/>
</g>
<g style="mix-blend-mode:lighten" opacity="0.85">
<path d="M941.983 337.202C859.26 311.111 761.038 307.92 663.869 320.281C633.169 305.135 599.71 297 565.774 296.362C609.971 357.062 657.401 387.566 737.943 400.639C736.698 397.677 735.359 394.699 733.937 391.725C727.892 379.091 720.331 366.532 712.054 355.598C710.718 353.956 709.391 352.265 708.065 350.526L700.52 341.81C796.648 336.227 871.033 341.632 930.66 360.837C935.574 353.857 939.102 346.178 941.983 337.202Z" fill="#FBF1B3" fill-opacity="0.75"/>
<path d="M331.894 302.591C219.007 221.451 139.557 182.061 2 125.015C2.97877 157.693 4.03707 185.633 5.74495 213.258C100.095 302.591 224.06 337.453 331.894 302.591Z" fill="#FBF1B3" fill-opacity="0.75"/>
<path d="M420.249 360.33C430.53 355.707 434.174 349.91 439.273 337.453C439.908 334.904 440.529 332.362 441.138 329.827C461.331 245.658 466.952 169.212 458.639 96.6903C449.227 99.2106 441.189 102.508 434.225 106.36C444.127 172.615 439.922 245.016 420.249 360.33Z" fill="#FBF1B3" fill-opacity="0.75"/>
</g>
<path d="M341.178 489.972C354.597 444.706 363.834 421.86 384.677 387.566C375.007 359.206 370.304 338.208 362.577 296.055C363.05 306.045 363.723 316.213 364.596 326.558C366.057 343.859 368.078 361.653 370.663 379.94C366.911 388.931 363.54 397.628 360.529 406.086C349.81 436.204 343.663 463.308 341.178 489.972Z" fill="#E1AF28"/>
<path d="M733.937 391.725C774.427 401.688 816.526 407.147 860.058 407.766C766.537 400.852 737.576 386.975 712.054 355.598C720.331 366.532 727.892 379.091 733.937 391.725Z" fill="#E1AF28"/>
<path d="M608.893 472.541C611.133 473.731 612.333 474.788 614.283 477.988C616.261 475.977 617.088 474.803 617.517 472.541C614.897 471.239 612.882 471.458 608.893 472.541Z" fill="black"/>
<path d="M608.893 472.541C611.133 473.731 612.333 474.788 614.283 477.988C616.261 475.977 617.088 474.803 617.517 472.541C614.897 471.239 612.882 471.458 608.893 472.541Z" fill="black"/>
<path fill-rule="evenodd" clip-rule="evenodd" d="M460.134 410.444C479.537 410.444 495.707 427.875 495.707 448.286C495.707 471.451 475.225 484.525 460.134 484.525C443.965 484.525 424.561 473.63 424.561 448.286C424.561 425.696 440.731 410.444 460.134 410.444ZM465.524 469.273C454.948 479.34 447.677 476.995 432.107 457.289C428.664 452.931 441.365 448.005 443.965 452.931C452.588 469.273 455.364 469.682 460.134 466.004C463.368 463.512 467.68 467.22 465.524 469.273ZM484.927 436.302C484.927 431.143 480.615 421.338 470.914 421.338C462.29 421.338 456.9 428.213 456.9 436.302C456.9 445.305 464.446 449.663 470.914 449.663C477.381 449.663 484.927 446.395 484.927 436.302Z" fill="black"/>
<path fill-rule="evenodd" clip-rule="evenodd" d="M685.428 415.891C702.676 415.891 722.079 441.235 722.079 461.647C722.079 474.72 714.533 486.703 699.442 486.703C682.194 486.703 660.635 467.094 660.635 445.305C660.635 426.785 668.181 415.891 685.428 415.891ZM694.052 439.57C694.052 434.411 690.818 425.696 681.116 425.696C672.493 425.696 668.181 431.769 668.181 439.858C668.181 448.861 674.649 451.842 681.116 451.842C687.584 451.842 694.052 449.663 694.052 439.57ZM710.221 459.468C706.994 469.578 703.462 472.216 694.052 471.451C687.034 470.881 691.896 475.877 696.208 476.899C708.661 479.849 712.482 476.442 714.533 462.736C715.349 457.289 711.96 454.021 710.221 459.468Z" fill="black"/>
<path d="M470.914 421.338C480.615 421.338 484.927 431.143 484.927 436.302C484.927 446.395 477.381 449.663 470.914 449.663C464.446 449.663 456.9 445.305 456.9 436.302C456.9 428.213 462.29 421.338 470.914 421.338Z" fill="white"/>
<path d="M681.116 425.696C690.818 425.696 694.052 434.411 694.052 439.57C694.052 449.663 687.584 451.842 681.116 451.842C674.649 451.842 668.181 448.861 668.181 439.858C668.181 431.769 672.493 425.696 681.116 425.696Z" fill="white"/>
<path d="M432.107 457.289C447.677 476.995 454.948 479.34 465.524 469.273C467.68 467.22 463.368 463.512 460.134 466.004C455.364 469.682 452.588 469.273 443.965 452.931C441.365 448.005 428.664 452.931 432.107 457.289Z" fill="#92775A"/>
<path d="M694.052 471.451C703.462 472.216 706.994 469.578 710.221 459.468C711.96 454.021 715.349 457.289 714.533 462.736C712.482 476.442 708.661 479.849 696.208 476.899C691.896 475.877 687.034 470.881 694.052 471.451Z" fill="#92775A"/>
<path fill-rule="evenodd" clip-rule="evenodd" d="M679.561 450.895C679.553 450.886 679.551 450.871 679.554 450.852L679.585 450.626H679.573L679.548 450.656C679.542 450.645 679.533 450.637 679.521 450.63C679.51 450.623 679.497 450.62 679.482 450.62H679.473C679.461 450.62 679.449 450.622 679.438 450.627C679.431 450.63 679.425 450.633 679.419 450.637C679.415 450.639 679.411 450.642 679.407 450.646C679.398 450.654 679.39 450.663 679.384 450.674C679.378 450.685 679.374 450.696 679.372 450.708L679.354 450.844C679.353 450.846 679.353 450.848 679.353 450.85V450.856C679.353 450.862 679.354 450.868 679.355 450.873C679.356 450.878 679.357 450.882 679.359 450.886C679.361 450.891 679.364 450.896 679.367 450.901C679.369 450.904 679.372 450.907 679.375 450.91C679.381 450.917 679.389 450.922 679.398 450.926C679.408 450.93 679.418 450.932 679.429 450.932H679.438C679.453 450.932 679.467 450.929 679.48 450.922C679.494 450.916 679.505 450.907 679.515 450.896C679.518 450.902 679.522 450.908 679.526 450.914C679.53 450.919 679.535 450.924 679.541 450.928C679.547 450.932 679.554 450.935 679.562 450.937C679.57 450.94 679.579 450.941 679.59 450.941C679.606 450.941 679.62 450.938 679.633 450.932C679.642 450.928 679.65 450.923 679.657 450.917C679.661 450.914 679.664 450.911 679.667 450.908C679.678 450.897 679.687 450.885 679.694 450.871C679.702 450.858 679.708 450.843 679.713 450.828C679.717 450.816 679.72 450.804 679.723 450.792L679.725 450.78C679.727 450.763 679.729 450.747 679.729 450.731C679.729 450.698 679.724 450.667 679.713 450.639C679.703 450.611 679.689 450.587 679.669 450.566C679.65 450.546 679.627 450.529 679.599 450.518C679.572 450.506 679.541 450.5 679.507 450.5C679.479 450.5 679.453 450.504 679.428 450.512C679.402 450.52 679.379 450.531 679.357 450.545C679.336 450.559 679.316 450.575 679.298 450.595C679.28 450.614 679.265 450.636 679.252 450.66C679.24 450.683 679.23 450.709 679.223 450.736C679.219 450.752 679.216 450.768 679.215 450.785C679.214 450.796 679.213 450.807 679.213 450.819C679.213 450.852 679.218 450.883 679.227 450.911C679.235 450.934 679.246 450.955 679.259 450.973C679.262 450.977 679.266 450.981 679.269 450.985C679.287 451.006 679.31 451.022 679.337 451.034C679.363 451.046 679.394 451.052 679.429 451.052C679.438 451.052 679.449 451.051 679.459 451.05C679.47 451.049 679.481 451.047 679.491 451.044C679.502 451.041 679.513 451.038 679.524 451.034C679.534 451.029 679.544 451.025 679.554 451.019L679.542 450.991C679.536 450.995 679.529 450.998 679.521 451.001C679.513 451.004 679.505 451.007 679.495 451.009C679.486 451.012 679.476 451.013 679.465 451.015C679.455 451.016 679.444 451.017 679.433 451.017C679.403 451.017 679.377 451.012 679.354 451.002C679.347 450.999 679.341 450.995 679.335 450.991C679.32 450.982 679.308 450.971 679.297 450.959C679.287 450.947 679.279 450.935 679.273 450.922C679.269 450.913 679.265 450.904 679.262 450.894C679.254 450.869 679.25 450.843 679.25 450.814C679.25 450.789 679.253 450.764 679.259 450.741C679.265 450.717 679.273 450.695 679.283 450.675C679.291 450.66 679.3 450.646 679.31 450.633C679.314 450.628 679.318 450.623 679.322 450.618C679.337 450.601 679.354 450.586 679.372 450.574C679.391 450.562 679.411 450.552 679.433 450.545C679.455 450.538 679.478 450.535 679.502 450.535C679.521 450.535 679.539 450.537 679.556 450.541C679.565 450.544 679.574 450.547 679.582 450.55C679.592 450.555 679.602 450.56 679.611 450.565C679.622 450.573 679.633 450.582 679.642 450.592C679.658 450.61 679.67 450.631 679.679 450.656C679.687 450.681 679.691 450.707 679.691 450.736C679.691 450.761 679.689 450.784 679.683 450.805C679.678 450.826 679.671 450.845 679.662 450.86C679.653 450.875 679.643 450.887 679.632 450.896C679.621 450.904 679.609 450.909 679.597 450.909C679.581 450.909 679.569 450.904 679.561 450.895ZM679.389 450.849L679.389 450.846L679.409 450.706C679.41 450.699 679.412 450.692 679.416 450.686C679.419 450.68 679.424 450.674 679.429 450.669C679.435 450.665 679.44 450.661 679.447 450.658C679.454 450.655 679.461 450.654 679.468 450.654H679.492C679.499 450.654 679.505 450.655 679.51 450.658C679.516 450.66 679.521 450.663 679.525 450.667C679.529 450.671 679.532 450.676 679.534 450.681C679.536 450.687 679.538 450.692 679.538 450.699V450.702L679.537 450.706L679.517 450.846C679.516 450.853 679.514 450.86 679.51 450.866C679.508 450.869 679.507 450.872 679.504 450.875C679.502 450.878 679.499 450.88 679.497 450.883C679.491 450.887 679.485 450.891 679.479 450.894C679.475 450.895 679.471 450.897 679.467 450.897C679.464 450.898 679.461 450.898 679.458 450.898H679.434C679.427 450.898 679.421 450.897 679.416 450.895C679.41 450.892 679.405 450.889 679.401 450.885C679.397 450.881 679.394 450.876 679.391 450.871C679.389 450.865 679.388 450.859 679.388 450.853L679.389 450.849ZM680.058 450.926H680.077L680.177 450.626H680.141L680.069 450.853L680.068 450.868L680.067 450.853L679.997 450.626H679.975L679.905 450.853L679.904 450.868L679.903 450.853L679.831 450.626H679.794L679.895 450.926H679.915L679.985 450.7L679.986 450.684L679.987 450.7L680.058 450.926ZM680.431 450.878C680.436 450.867 680.438 450.856 680.438 450.844V450.832L680.402 450.826V450.846C680.402 450.853 680.401 450.86 680.398 450.866C680.395 450.872 680.391 450.878 680.387 450.883C680.382 450.887 680.376 450.891 680.37 450.894C680.364 450.896 680.357 450.898 680.35 450.898H680.326C680.319 450.898 680.312 450.896 680.305 450.894C680.302 450.892 680.299 450.891 680.296 450.888C680.293 450.887 680.291 450.885 680.289 450.883C680.284 450.878 680.28 450.872 680.278 450.866C680.275 450.86 680.274 450.853 680.274 450.846V450.779H680.438V450.708C680.438 450.696 680.436 450.685 680.431 450.674C680.426 450.663 680.42 450.654 680.412 450.646C680.404 450.638 680.395 450.632 680.384 450.627C680.373 450.622 680.362 450.62 680.35 450.62H680.326C680.314 450.62 680.302 450.622 680.291 450.627C680.281 450.632 680.271 450.638 680.263 450.646C680.255 450.654 680.249 450.663 680.244 450.674C680.24 450.685 680.238 450.696 680.238 450.708V450.844C680.238 450.856 680.24 450.867 680.244 450.878C680.249 450.889 680.255 450.898 680.263 450.906C680.271 450.914 680.281 450.92 680.291 450.925C680.302 450.93 680.314 450.932 680.326 450.932H680.35C680.362 450.932 680.373 450.93 680.384 450.925C680.395 450.92 680.404 450.914 680.412 450.906C680.42 450.898 680.426 450.889 680.431 450.878ZM680.398 450.686C680.401 450.692 680.402 450.699 680.402 450.706V450.751H680.274V450.706C680.274 450.703 680.274 450.699 680.275 450.696C680.275 450.692 680.276 450.689 680.278 450.686C680.279 450.682 680.281 450.679 680.284 450.676C680.285 450.673 680.287 450.671 680.289 450.669C680.294 450.665 680.299 450.661 680.305 450.658C680.312 450.655 680.319 450.654 680.326 450.654H680.35C680.357 450.654 680.364 450.655 680.37 450.658C680.376 450.661 680.382 450.665 680.387 450.669C680.391 450.674 680.395 450.68 680.398 450.686ZM680.692 450.706V450.926H680.728V450.708C680.728 450.696 680.726 450.685 680.721 450.674C680.717 450.663 680.711 450.654 680.703 450.646C680.698 450.641 680.692 450.637 680.686 450.633C680.683 450.631 680.679 450.629 680.674 450.627C680.664 450.622 680.652 450.62 680.64 450.62H680.631C680.617 450.62 680.603 450.623 680.59 450.63C680.578 450.637 680.568 450.645 680.56 450.656L680.54 450.626H680.528V450.926H680.564V450.706C680.564 450.702 680.565 450.698 680.566 450.694C680.566 450.691 680.567 450.689 680.568 450.686C680.571 450.68 680.575 450.674 680.579 450.669C680.584 450.665 680.589 450.661 680.596 450.658C680.602 450.655 680.609 450.654 680.616 450.654H680.64C680.644 450.654 680.647 450.654 680.65 450.655C680.654 450.656 680.657 450.657 680.66 450.658C680.667 450.661 680.672 450.665 680.677 450.669C680.682 450.674 680.686 450.68 680.688 450.686C680.691 450.692 680.692 450.699 680.692 450.706ZM680.987 450.896L681.007 450.926H681.019V450.506H680.983V450.651C680.975 450.641 680.965 450.634 680.953 450.628C680.942 450.623 680.929 450.62 680.916 450.62H680.907C680.898 450.62 680.889 450.621 680.881 450.624C680.878 450.625 680.875 450.626 680.872 450.627C680.867 450.629 680.862 450.632 680.858 450.635C680.853 450.638 680.848 450.642 680.844 450.646C680.836 450.654 680.83 450.663 680.825 450.674C680.822 450.681 680.82 450.689 680.819 450.697C680.819 450.701 680.818 450.704 680.818 450.708V450.844C680.818 450.856 680.821 450.867 680.825 450.878C680.83 450.889 680.836 450.898 680.844 450.906C680.852 450.914 680.862 450.92 680.872 450.925C680.883 450.93 680.895 450.932 680.907 450.932H680.916C680.93 450.932 680.944 450.929 680.956 450.922C680.969 450.916 680.979 450.907 680.987 450.896ZM680.979 450.686C680.982 450.692 680.983 450.699 680.983 450.706V450.846C680.983 450.853 680.982 450.86 680.979 450.866C680.976 450.872 680.972 450.878 680.968 450.883C680.963 450.887 680.957 450.891 680.951 450.894C680.945 450.896 680.938 450.898 680.931 450.898H680.907C680.901 450.898 680.896 450.897 680.892 450.896L680.886 450.894C680.88 450.891 680.874 450.887 680.87 450.883C680.867 450.88 680.865 450.878 680.864 450.875C680.862 450.872 680.86 450.869 680.859 450.866C680.856 450.86 680.854 450.853 680.854 450.846V450.706C680.854 450.699 680.856 450.692 680.859 450.686C680.861 450.68 680.865 450.674 680.87 450.669C680.874 450.665 680.88 450.661 680.886 450.658C680.889 450.657 680.891 450.656 680.894 450.656C680.898 450.655 680.902 450.654 680.907 450.654H680.931C680.938 450.654 680.945 450.655 680.951 450.658C680.957 450.661 680.963 450.665 680.968 450.669C680.972 450.674 680.976 450.68 680.979 450.686ZM681.308 450.858C681.309 450.854 681.309 450.849 681.309 450.844V450.832L681.273 450.826V450.846C681.273 450.853 681.272 450.86 681.269 450.866C681.266 450.872 681.263 450.878 681.258 450.883C681.256 450.885 681.253 450.887 681.25 450.889C681.248 450.891 681.245 450.892 681.241 450.894C681.238 450.895 681.234 450.896 681.231 450.897C681.228 450.898 681.224 450.898 681.221 450.898H681.197C681.192 450.898 681.187 450.897 681.182 450.896L681.177 450.894C681.17 450.891 681.165 450.887 681.16 450.883C681.156 450.878 681.152 450.872 681.149 450.866C681.146 450.86 681.145 450.853 681.145 450.846V450.779H681.309V450.708C681.309 450.696 681.307 450.685 681.302 450.674C681.298 450.663 681.292 450.654 681.284 450.646C681.276 450.638 681.266 450.632 681.255 450.627C681.245 450.622 681.233 450.62 681.221 450.62H681.197C681.185 450.62 681.174 450.622 681.163 450.627C681.152 450.632 681.143 450.638 681.135 450.646C681.127 450.654 681.12 450.663 681.116 450.674C681.113 450.681 681.111 450.689 681.11 450.697C681.109 450.701 681.109 450.705 681.109 450.708V450.844C681.109 450.856 681.111 450.867 681.116 450.878C681.12 450.889 681.127 450.898 681.135 450.906C681.143 450.914 681.152 450.92 681.163 450.925C681.168 450.927 681.173 450.929 681.179 450.93C681.185 450.931 681.191 450.932 681.197 450.932H681.221C681.233 450.932 681.245 450.93 681.255 450.925C681.266 450.92 681.276 450.914 681.284 450.906C681.292 450.898 681.298 450.889 681.302 450.878C681.305 450.872 681.307 450.865 681.308 450.858ZM681.269 450.686C681.272 450.692 681.273 450.699 681.273 450.706V450.751H681.145V450.706C681.145 450.699 681.146 450.692 681.149 450.686C681.152 450.68 681.156 450.674 681.16 450.669C681.165 450.665 681.17 450.661 681.177 450.658C681.183 450.655 681.19 450.654 681.197 450.654H681.221C681.224 450.654 681.228 450.654 681.231 450.655C681.234 450.656 681.238 450.657 681.241 450.658C681.248 450.661 681.253 450.665 681.258 450.669C681.263 450.674 681.266 450.68 681.269 450.686ZM681.411 450.506V450.926H681.447V450.506H681.411ZM681.729 450.909C681.737 450.902 681.744 450.893 681.749 450.883C681.754 450.873 681.756 450.862 681.756 450.85C681.756 450.836 681.754 450.824 681.749 450.814C681.744 450.804 681.738 450.796 681.73 450.79C681.727 450.787 681.723 450.784 681.719 450.782C681.714 450.779 681.709 450.776 681.704 450.774C681.694 450.77 681.684 450.766 681.674 450.763C681.664 450.76 681.654 450.757 681.644 450.754C681.634 450.751 681.625 450.747 681.617 450.742C681.61 450.738 681.603 450.732 681.599 450.726C681.594 450.719 681.592 450.711 681.592 450.7C681.592 450.693 681.593 450.687 681.596 450.681C681.599 450.675 681.602 450.671 681.607 450.667C681.612 450.663 681.617 450.66 681.623 450.657C681.63 450.655 681.637 450.654 681.644 450.654H681.665C681.672 450.654 681.679 450.655 681.685 450.658C681.689 450.66 681.693 450.662 681.697 450.665C681.698 450.666 681.7 450.668 681.702 450.669C681.707 450.674 681.71 450.68 681.713 450.686C681.716 450.692 681.717 450.699 681.717 450.706V450.715L681.753 450.71V450.708C681.753 450.696 681.751 450.685 681.746 450.674C681.743 450.668 681.74 450.661 681.736 450.656C681.733 450.652 681.73 450.649 681.727 450.646C681.719 450.638 681.71 450.632 681.699 450.627C681.688 450.622 681.677 450.62 681.665 450.62H681.644C681.632 450.62 681.62 450.622 681.61 450.626C681.599 450.63 681.59 450.636 681.582 450.643C681.574 450.65 681.567 450.659 681.563 450.669C681.561 450.673 681.559 450.678 681.558 450.682C681.556 450.688 681.556 450.695 681.556 450.702C681.556 450.716 681.558 450.728 681.563 450.738C681.565 450.743 681.568 450.748 681.572 450.753C681.575 450.756 681.578 450.759 681.581 450.762C681.589 450.768 681.598 450.773 681.608 450.777C681.617 450.781 681.628 450.785 681.638 450.788C681.648 450.791 681.658 450.794 681.668 450.797C681.675 450.799 681.681 450.801 681.686 450.804C681.689 450.805 681.692 450.807 681.695 450.808C681.702 450.813 681.709 450.818 681.713 450.825C681.716 450.828 681.717 450.832 681.718 450.836C681.72 450.841 681.72 450.846 681.72 450.852C681.72 450.859 681.719 450.865 681.716 450.871C681.713 450.877 681.709 450.881 681.703 450.886C681.698 450.889 681.692 450.893 681.686 450.895C681.679 450.897 681.672 450.898 681.665 450.898H681.641C681.634 450.898 681.627 450.896 681.62 450.894C681.613 450.891 681.608 450.887 681.603 450.883C681.597 450.878 681.593 450.872 681.59 450.866C681.589 450.863 681.588 450.859 681.587 450.856C681.586 450.853 681.586 450.849 681.586 450.846V450.826L681.55 450.832V450.844C681.55 450.856 681.552 450.867 681.557 450.878C681.56 450.885 681.564 450.891 681.568 450.896C681.571 450.9 681.574 450.903 681.577 450.906C681.586 450.914 681.595 450.92 681.606 450.925C681.611 450.927 681.617 450.929 681.622 450.93C681.628 450.931 681.635 450.932 681.641 450.932H681.665C681.677 450.932 681.689 450.93 681.7 450.926C681.708 450.923 681.715 450.919 681.721 450.915C681.724 450.913 681.727 450.911 681.729 450.909ZM681.852 450.506V450.554H681.894V450.506H681.852ZM681.855 450.626V450.926H681.891V450.626H681.855ZM682.006 450.506V450.926H682.042V450.506H682.006ZM682.22 450.926H682.238L682.344 450.626H682.308L682.23 450.853L682.229 450.869L682.228 450.853L682.15 450.626H682.114L682.22 450.926ZM682.573 450.896L682.593 450.926H682.605V450.708C682.605 450.702 682.604 450.695 682.603 450.689C682.602 450.684 682.6 450.679 682.598 450.674C682.594 450.663 682.587 450.654 682.579 450.646C682.571 450.638 682.562 450.632 682.551 450.627C682.54 450.622 682.529 450.62 682.517 450.62H682.496C682.484 450.62 682.472 450.622 682.461 450.627C682.451 450.632 682.441 450.638 682.433 450.646C682.425 450.654 682.419 450.663 682.414 450.674C682.41 450.685 682.408 450.696 682.408 450.708V450.711L682.444 450.717V450.706C682.444 450.699 682.445 450.692 682.448 450.686C682.45 450.68 682.454 450.674 682.459 450.669C682.464 450.665 682.469 450.661 682.475 450.658C682.482 450.655 682.489 450.654 682.496 450.654H682.517C682.521 450.654 682.524 450.654 682.528 450.655C682.531 450.656 682.534 450.657 682.537 450.658C682.544 450.661 682.549 450.665 682.554 450.669C682.558 450.674 682.562 450.68 682.565 450.686C682.568 450.692 682.569 450.699 682.569 450.706V450.753H682.493C682.488 450.753 682.484 450.753 682.479 450.754C682.472 450.755 682.465 450.757 682.459 450.76C682.451 450.763 682.444 450.767 682.438 450.771C682.436 450.774 682.433 450.776 682.43 450.778C682.422 450.786 682.416 450.796 682.411 450.806C682.407 450.817 682.405 450.829 682.405 450.841V450.844C682.405 450.856 682.407 450.867 682.411 450.878C682.416 450.889 682.422 450.898 682.43 450.906C682.438 450.914 682.448 450.92 682.459 450.925C682.469 450.93 682.481 450.932 682.493 450.932H682.502C682.517 450.932 682.53 450.929 682.542 450.922C682.555 450.916 682.565 450.907 682.573 450.896ZM682.493 450.781H682.569V450.846C682.569 450.853 682.568 450.86 682.565 450.866C682.564 450.869 682.563 450.871 682.561 450.873C682.559 450.877 682.557 450.88 682.554 450.883C682.549 450.887 682.544 450.891 682.537 450.894C682.531 450.896 682.524 450.898 682.517 450.898H682.493C682.486 450.898 682.479 450.896 682.472 450.894C682.466 450.891 682.461 450.887 682.456 450.883C682.451 450.878 682.448 450.872 682.445 450.866C682.442 450.86 682.441 450.853 682.441 450.846V450.833C682.441 450.826 682.442 450.819 682.445 450.813C682.448 450.806 682.451 450.801 682.456 450.796C682.461 450.791 682.466 450.788 682.472 450.785C682.479 450.782 682.486 450.781 682.493 450.781ZM682.745 450.603V450.656V450.603ZM683.244 450.869C683.249 450.856 683.252 450.843 683.252 450.829V450.8C683.252 450.796 683.252 450.791 683.251 450.787C683.251 450.782 683.25 450.777 683.248 450.772C683.245 450.762 683.242 450.754 683.237 450.746C683.232 450.738 683.227 450.731 683.22 450.725C683.213 450.719 683.206 450.713 683.198 450.709C683.202 450.707 683.206 450.704 683.21 450.701C683.213 450.699 683.217 450.696 683.22 450.693C683.227 450.686 683.232 450.679 683.237 450.671C683.239 450.668 683.241 450.664 683.243 450.66C683.245 450.656 683.247 450.651 683.248 450.646C683.251 450.637 683.252 450.627 683.252 450.618V450.603C683.252 450.589 683.249 450.576 683.244 450.563C683.239 450.551 683.231 450.54 683.222 450.53C683.213 450.521 683.202 450.513 683.189 450.508C683.177 450.503 683.163 450.5 683.149 450.5H683.131C683.117 450.5 683.103 450.503 683.091 450.508C683.081 450.513 683.071 450.518 683.063 450.525C683.061 450.527 683.06 450.528 683.058 450.53C683.049 450.54 683.041 450.551 683.036 450.563C683.033 450.569 683.031 450.576 683.03 450.583C683.028 450.59 683.028 450.596 683.028 450.603V450.614L683.066 450.62V450.603C683.066 450.594 683.067 450.585 683.071 450.577C683.074 450.569 683.079 450.562 683.085 450.556C683.091 450.55 683.099 450.545 683.107 450.541C683.115 450.538 683.124 450.536 683.133 450.536H683.147C683.157 450.536 683.165 450.538 683.173 450.541C683.182 450.545 683.189 450.55 683.195 450.556C683.201 450.562 683.206 450.569 683.209 450.577C683.213 450.585 683.214 450.594 683.214 450.603V450.624C683.214 450.633 683.213 450.642 683.209 450.65C683.207 450.655 683.204 450.66 683.201 450.664C683.199 450.667 683.197 450.669 683.195 450.671C683.189 450.677 683.182 450.682 683.173 450.685C683.165 450.689 683.157 450.691 683.147 450.691H683.119V450.727H683.147C683.157 450.727 683.165 450.729 683.173 450.732C683.182 450.736 683.189 450.74 683.195 450.746C683.201 450.752 683.206 450.76 683.209 450.768C683.213 450.776 683.214 450.784 683.214 450.794V450.829C683.214 450.838 683.213 450.847 683.209 450.855C683.206 450.863 683.201 450.87 683.195 450.876C683.189 450.883 683.182 450.887 683.173 450.891C683.165 450.894 683.157 450.896 683.147 450.896H683.133C683.124 450.896 683.115 450.894 683.107 450.891C683.102 450.889 683.097 450.886 683.092 450.883C683.09 450.881 683.087 450.879 683.085 450.876C683.079 450.87 683.074 450.863 683.071 450.855C683.068 450.85 683.067 450.844 683.066 450.838C683.066 450.835 683.066 450.832 683.066 450.829V450.812L683.028 450.818V450.829C683.028 450.839 683.029 450.849 683.032 450.858C683.033 450.862 683.034 450.865 683.036 450.869C683.038 450.874 683.04 450.879 683.043 450.883C683.047 450.89 683.052 450.896 683.058 450.902C683.067 450.911 683.078 450.919 683.091 450.924C683.103 450.929 683.117 450.932 683.131 450.932H683.149C683.156 450.932 683.163 450.931 683.17 450.93C683.176 450.929 683.183 450.927 683.189 450.924C683.202 450.919 683.213 450.911 683.222 450.902C683.231 450.892 683.239 450.881 683.244 450.869Z" fill="black" fill-opacity="0.1"/>
<path fill-rule="evenodd" clip-rule="evenodd" d="M682.932 450.829C682.932 450.843 682.929 450.856 682.923 450.869C682.918 450.881 682.911 450.892 682.901 450.902C682.892 450.911 682.881 450.919 682.869 450.924C682.856 450.929 682.843 450.932 682.828 450.932H682.81C682.796 450.932 682.783 450.929 682.77 450.924C682.758 450.919 682.747 450.911 682.737 450.902C682.728 450.892 682.721 450.881 682.715 450.869C682.71 450.856 682.707 450.843 682.707 450.829V450.818L682.745 450.812V450.829C682.745 450.838 682.747 450.847 682.75 450.855C682.754 450.863 682.758 450.87 682.765 450.876C682.771 450.883 682.778 450.887 682.786 450.891C682.794 450.894 682.803 450.896 682.812 450.896H682.826C682.836 450.896 682.844 450.894 682.852 450.891C682.861 450.887 682.868 450.883 682.874 450.876C682.88 450.87 682.885 450.863 682.888 450.855C682.892 450.847 682.894 450.838 682.894 450.829V450.724C682.884 450.735 682.872 450.743 682.859 450.75C682.846 450.756 682.832 450.759 682.816 450.759H682.81C682.796 450.759 682.783 450.757 682.77 450.751C682.758 450.746 682.747 450.739 682.737 450.729C682.728 450.72 682.721 450.709 682.715 450.696C682.71 450.684 682.707 450.67 682.707 450.656V450.603C682.707 450.589 682.71 450.576 682.715 450.563C682.721 450.551 682.728 450.54 682.737 450.53C682.747 450.521 682.758 450.513 682.77 450.508C682.783 450.503 682.796 450.5 682.81 450.5H682.828C682.843 450.5 682.856 450.503 682.869 450.508C682.881 450.513 682.892 450.521 682.901 450.53C682.911 450.54 682.918 450.551 682.923 450.563C682.929 450.576 682.932 450.589 682.932 450.603V450.829ZM682.888 450.577C682.892 450.585 682.894 450.594 682.894 450.603V450.656C682.894 450.665 682.892 450.674 682.888 450.682C682.885 450.69 682.88 450.697 682.874 450.704C682.868 450.71 682.861 450.714 682.852 450.718C682.844 450.721 682.836 450.723 682.826 450.723H682.812C682.803 450.723 682.794 450.721 682.786 450.718C682.778 450.714 682.771 450.71 682.765 450.704C682.758 450.697 682.754 450.69 682.75 450.682C682.747 450.674 682.745 450.665 682.745 450.656V450.603C682.745 450.594 682.747 450.585 682.75 450.577L682.753 450.572C682.755 450.568 682.756 450.565 682.759 450.562L682.759 450.561C682.761 450.559 682.763 450.558 682.765 450.556C682.771 450.55 682.778 450.545 682.786 450.541C682.794 450.538 682.803 450.536 682.812 450.536H682.826C682.836 450.536 682.844 450.538 682.852 450.541C682.861 450.545 682.868 450.55 682.874 450.556C682.88 450.562 682.885 450.569 682.888 450.577Z" fill="black" fill-opacity="0.1"/>
<path d="M435.341 352.705C436.704 347.592 438.015 342.508 439.273 337.453C439.908 334.904 440.529 332.362 441.138 329.827M441.138 329.827C461.331 245.658 466.952 169.212 458.639 96.6903C454.985 64.8093 448.638 33.6867 439.653 3C431.666 12.585 424.286 22.7541 417.516 33.5038C391.532 74.7638 374.536 124.578 366.717 182.755C362.042 217.544 360.648 255.325 362.577 296.055C363.05 306.045 363.723 316.213 364.596 326.558M441.138 329.827C480.485 306.409 523.5 295.568 565.774 296.362C599.71 297 633.168 305.135 663.869 320.281M675.727 326.558C671.824 324.347 667.87 322.255 663.869 320.281M708.065 350.526L700.52 341.81M708.065 350.526C709.391 352.265 710.718 353.956 712.054 355.598M708.065 350.526C709.411 352.171 710.741 353.864 712.054 355.598M657.401 710.035C671.046 701.671 684.365 691.665 696.907 680.621M733.937 391.725C774.427 401.688 816.526 407.147 860.058 407.766C905.287 408.409 952.063 403.828 1000.19 393.648C1013.03 390.932 1025.97 387.818 1039 384.298C1010.43 363.951 977.644 348.449 941.983 337.202C859.26 311.111 761.038 307.92 663.869 320.281M733.937 391.725C735.359 394.699 736.698 397.677 737.943 400.639C743.334 413.472 746.952 426.003 747.95 436.59C750.106 459.468 758.73 483.435 763.042 492.151C765.795 497.717 768.98 502.412 771.914 507.402M733.937 391.725C727.892 379.091 720.331 366.533 712.054 355.598M346.948 591.288C345.981 585.75 345.104 580.309 344.322 574.947M771.914 507.402C777.02 516.085 781.367 525.66 781.367 542.264C781.367 549.661 780.042 557.727 777.565 566.231C772.801 582.593 763.776 600.574 751.728 618.524M771.914 507.402C768.757 509.34 765.798 511.498 763.042 513.845C731.7 540.52 726.458 591.487 751.728 618.524M751.728 618.524C737.148 640.246 718.142 661.922 696.907 680.621M696.907 680.621C701.273 700.731 703.66 720.359 704.269 739.449M330.779 731.823C307.494 713.105 275.637 709.089 248.853 724.802M248.853 724.802C248.045 725.277 247.24 725.769 246.438 726.28M248.853 724.802C258.404 714.038 266.922 704.142 274.606 694.783C279.852 688.394 284.709 682.256 289.241 676.263C295.136 668.468 300.48 660.919 305.413 653.385M344.322 574.947C339.977 545.149 338.583 517.799 341.178 489.972C343.663 463.308 349.81 436.204 360.529 406.086M344.322 574.947C338.494 590.206 332.74 603.71 326.527 616.345C323.024 623.468 319.374 630.315 315.484 637.044C312.305 642.541 308.966 647.959 305.413 653.385M358.806 701.32C352.519 729.203 352.003 762.117 355.792 796.099M408.44 964.96C412.944 972.843 417.614 980.146 422.405 986.748L429.951 982.39L442.887 993.285L454.744 985.659L466.602 994.374L475.225 986.748L483.849 993.285L492.473 978.033L505.408 975.854L501.097 961.691M408.44 964.96C271.491 1025.97 197.111 915.936 197.111 842.944C197.111 807.762 204.292 780.581 215.347 760.511M408.44 964.96C404.711 958.435 401.096 951.512 397.62 944.261C377.186 901.639 361.538 847.642 355.792 796.099M355.792 796.099C337.252 775.697 293.094 746.611 267.069 749.834M554.995 780.847C528.627 853.802 521.575 897.441 527.802 963.87M501.097 961.691C521.362 898.776 523.232 857.365 514.032 775.4M501.097 961.691C511.521 959.732 517.368 959.967 527.802 963.87M310.297 870.18C308.776 862.779 307.137 855.505 305.389 848.392C295.536 808.29 282.232 773.323 267.069 749.834M226.216 718.695C222.286 718.705 215.395 731.831 215.347 760.511M226.216 718.695C229.473 718.687 232.71 719.284 235.918 720.44M226.216 718.695C227.224 743.179 229.055 758.566 235.276 780.223C236.414 784.184 237.698 788.356 239.152 792.831M314.609 915.936C317.843 1000.91 270.413 967.032 240.23 881.074C229.765 851.272 223.299 825.955 219.591 804.815C216.502 787.21 215.327 772.501 215.347 760.511M267.069 749.834C260.498 739.655 253.578 731.631 246.438 726.28M246.438 726.28C245.747 725.762 245.055 725.27 244.36 724.802M519.422 509.581C523.265 512.931 527.206 515.711 531.28 517.896M666.025 517.207C662.293 521.664 656.96 523.532 650.933 523.387M531.28 517.896C547.759 526.735 566.409 525.84 589.49 513.578C596.274 509.974 603.441 505.387 611.049 499.776C621.391 513.215 637.808 523.072 650.933 523.387M531.28 517.896C530.691 534.417 530.781 549.853 531.477 564.052C534.606 627.912 549.999 666.754 571.164 666.754C585.066 666.749 611.152 632.353 630.282 589.109C633.014 582.932 635.605 576.575 637.998 570.112C643.666 554.802 648.225 538.897 650.933 523.387M697.286 925.741C690.675 945.784 691.197 958.367 696.208 964.134M732.859 846.213C743.5 826.127 753.056 809.601 761.61 796.099C769.356 783.874 776.28 774.129 782.445 766.469M782.445 766.469C764.119 732.913 741.482 728.555 704.269 739.449M782.445 766.469C792.608 753.841 800.708 746.878 807.021 743.807M704.269 739.449C704.481 746.077 704.478 752.64 704.269 759.136C701.604 842.097 665.351 914.122 612.947 970.407M612.947 970.407C610.202 973.355 607.412 976.261 604.581 979.122L606.737 988.927H594.879L587.334 999.821L578.71 993.285L567.93 1002L559.307 991.106L545.293 995.464L537.747 982.39L530.202 985.659C529.259 978.103 528.457 970.861 527.802 963.87M612.947 970.407C627.421 981.681 660.635 982.391 696.208 964.134M696.208 964.134C705.904 975.293 732.41 960.934 756.574 925.741C784.997 884.343 806.303 836.664 817.372 800.457C821.835 785.857 824.634 773.122 825.563 763.417C826.129 757.512 825.35 751.304 822.87 747.075M244.36 724.802C241.575 722.929 238.758 721.465 235.918 720.44M244.36 724.802C244.238 742.01 246.692 756.572 257.054 787.843C258.767 793.014 260.697 798.642 262.867 804.815M807.021 743.807C814.916 739.967 820.018 742.213 822.87 747.075M807.021 743.807C802.793 764.58 798.523 779.188 788.503 804.482C786.982 808.321 785.329 812.407 783.523 816.798M822.87 747.075C819.247 766.671 815.436 779.913 806.902 800.573C805.377 804.266 803.701 808.195 801.848 812.441M235.918 720.44L256.399 670.816L241.501 658.832L203.579 628.328C217.063 609.434 225.076 598.773 242.386 579.304C224.19 563.34 201.423 552.069 177.708 537.906L226.216 462.736C139.207 425.358 94.2795 407.738 24.6372 385.387C20.0929 353.921 16.5436 326.996 13.7286 302.591C9.95923 269.913 7.50655 241.753 5.74495 213.258C4.03707 185.633 2.97877 157.693 2 125.015C139.557 182.061 219.007 221.451 331.894 302.591C342.476 310.197 353.351 318.17 364.596 326.558M360.529 406.086C363.54 397.628 366.911 388.931 370.663 379.94C368.078 361.653 366.057 343.859 364.596 326.558M360.529 406.086C349.104 410.444 296.284 468.183 272.569 506.313C298.236 523.604 311.499 533.749 331.857 553.158C323.641 561.461 316.749 568.684 310.297 575.769C298.124 589.136 287.522 602.01 272.569 620.702L281.327 629.418L305.413 653.385M350.182 559.695C350.182 590.199 374.975 608.719 398.69 608.719C424.592 608.719 445.514 589.598 447.102 562.963C447.166 561.886 447.198 560.796 447.198 559.695C447.198 535.727 427.795 511.488 398.69 511.488C388.437 511.488 378.692 514.953 370.663 520.763C358.432 529.615 350.182 543.91 350.182 559.695ZM608.893 472.541C611.133 473.731 612.333 474.788 614.283 477.988C616.261 475.977 617.088 474.803 617.517 472.541C614.897 471.239 612.882 471.458 608.893 472.541ZM460.134 410.444C479.537 410.444 495.707 427.875 495.707 448.286C495.707 471.451 475.226 484.525 460.134 484.525C443.965 484.525 424.561 473.63 424.561 448.286C424.561 425.696 440.731 410.444 460.134 410.444ZM685.428 415.891C702.676 415.891 722.079 441.236 722.079 461.647C722.079 474.72 714.533 486.703 699.442 486.703C682.194 486.703 660.635 467.094 660.635 445.305C660.635 426.785 668.181 415.891 685.428 415.891ZM432.107 457.289C447.677 476.995 454.948 479.34 465.524 469.273C467.68 467.22 463.368 463.512 460.134 466.004C455.364 469.682 452.588 469.273 443.965 452.931C441.365 448.005 428.664 452.931 432.107 457.289ZM470.914 421.338C480.615 421.338 484.927 431.143 484.927 436.302C484.927 446.395 477.381 449.663 470.914 449.663C464.446 449.663 456.9 445.305 456.9 436.302C456.9 428.213 462.29 421.338 470.914 421.338ZM681.116 425.696C690.818 425.696 694.052 434.411 694.052 439.57C694.052 449.663 687.584 451.842 681.116 451.842C674.649 451.842 668.181 448.861 668.181 439.858C668.181 431.769 672.493 425.696 681.116 425.696ZM694.052 471.452C703.462 472.216 706.994 469.578 710.221 459.468C711.96 454.021 715.349 457.289 714.533 462.736C712.482 476.442 708.661 479.849 696.208 476.899C691.896 475.877 687.035 470.881 694.052 471.452Z" stroke="black" stroke-width="2"/>
</svg>
